<svg viewBox="0 0 64 64" fill="none" xmlns="http://www.w3.org/2000/svg">
	<path fillRule="evenodd" clip-rule="evenodd" d="M8.09009 48.9885C8.86257 49.0513 9.64852 49.0823 10.421 49.0823C11.2069 49.0823 11.9927 49.0513 12.7786 48.9885L12.7387 49.3658C11.4199 49.4601 11.3134 49.775 11.3134 51.1907V56.4121C11.3134 57.5446 12.0195 58.74 13.8042 58.74C15.9486 58.74 16.4948 57.0099 16.4948 55.8772V52.0086C16.4948 49.9327 16.1884 49.3816 14.963 49.3658V48.9885C15.3758 49.0356 16.0153 49.0823 16.6947 49.0823C17.2408 49.0823 17.7867 49.0356 18.3196 48.9885V49.3658C17.1607 49.4601 17.0542 49.775 17.0542 51.1907V55.4998C17.0542 58.111 15.7223 59.6207 13.4845 59.6207C10.7938 59.6207 9.58174 57.8907 9.58174 56.3493V51.1907C9.58174 50.0582 9.47528 49.4601 8.09009 49.3658V48.9885Z" fill="#D0383F"/>
	<path fillRule="evenodd" clip-rule="evenodd" d="M24.2681 52.118C23.8949 50.5769 22.6164 49.3344 21.3376 49.3344C20.5385 49.3344 19.899 49.8374 19.899 50.813C19.899 53.0933 25.0272 52.8104 25.0272 56.6479C25.0272 58.4566 23.7885 59.6206 21.8569 59.6206C20.9647 59.6206 20.0989 59.1644 19.2065 59.1644C19.0732 59.1644 18.6869 59.2904 18.5405 59.3689C18.4074 58.2051 18.2609 56.9942 18.0076 55.7832H18.3007C18.6736 57.3558 20.192 58.9286 21.5507 58.9286C22.7228 58.9286 23.5086 58.5667 23.5086 57.3245C23.5086 54.7607 18.3007 55.0123 18.3007 51.5834C18.3007 49.6332 19.3129 48.7686 21.3643 48.7686C22.4299 48.7686 23.3489 49.2402 24.0147 49.2402H24.4943C24.481 49.5863 24.4545 49.9002 24.4545 50.2307C24.4545 50.8446 24.5077 51.505 24.5476 52.118H24.2681Z" fill="#D0383F"/>
	<path fillRule="evenodd" clip-rule="evenodd" d="M24.8867 58.9916C26.0855 58.9287 26.2719 58.4567 26.2719 57.1985V51.222C26.2719 50.0424 26.0855 49.4916 24.8867 49.4287V48.9885C25.7923 49.0198 26.7115 49.0823 27.6171 49.0823C29.3221 49.0823 31.0405 49.0356 32.7986 48.9885C32.7856 49.3658 32.7856 49.7435 32.7856 50.1053C32.7856 50.7504 32.7856 51.4106 32.8916 51.9296L32.5988 51.9926C32.1726 50.4041 31.32 49.5864 29.5487 49.5864H28.0569V53.4082H28.7494C29.6819 53.4082 30.5741 52.9046 30.8672 51.442H31.1338C31.1201 52.1812 31.0805 52.936 31.0805 53.6753C31.0805 54.4303 31.1201 55.1697 31.1338 55.9246H30.8672C30.5741 54.3834 29.8017 53.8799 28.7494 53.8799H28.0569V58.551C28.483 58.6929 29.0024 58.7713 29.6418 58.7713C31.3735 58.7713 32.8121 57.8119 33.7843 55.7675L34.0374 55.9875C33.5978 57.0883 33.1851 58.2052 32.8785 59.3691C31.5067 59.322 30.1347 59.306 28.7494 59.306C27.0312 59.306 25.5661 59.322 24.8867 59.3691V58.9916Z" fill="#D0383F"/>
	<path fillRule="evenodd" clip-rule="evenodd" d="M33.5078 59.3689C34.0403 59.3218 34.5732 59.3059 35.1061 59.3059C35.6787 59.3059 36.2515 59.3218 36.8244 59.3689V58.9915C36.3445 58.8973 35.652 58.5825 35.652 58.0632C35.652 57.6545 35.7853 57.4029 35.8654 57.12L36.5447 54.9021H39.1953L39.6479 56.4592C39.7814 56.8995 40.0876 57.7177 40.0876 58.1109C40.0876 58.6611 39.6479 58.9128 38.729 58.9915V59.3689C39.4615 59.3218 40.2075 59.3059 40.9533 59.3059C41.6327 59.3059 42.6715 59.3218 43.3642 59.3689V58.9915C42.8183 58.9915 42.2055 58.7083 41.9922 58.0317L39.102 48.7686C38.5958 49.0355 38.0229 49.2087 37.4633 49.3344L37.7031 50.0895L35.0926 57.2769C34.7328 58.2677 34.5068 58.8659 33.5078 58.9915V59.3689ZM36.7311 54.3046L37.8899 50.6237H37.9164L39.0084 54.3046H36.7311Z" fill="#D0383F"/>
	<path fillRule="evenodd" clip-rule="evenodd" d="M16.3154 63.1991L15.7685 62.7815L15.2214 63.1991L15.4369 62.5209L14.8828 62.0936H15.5624L15.7685 61.4327L15.9697 62.0936H16.6518L16.1024 62.5209L16.3154 63.1991ZM13.6993 63.1991L13.1522 62.7815L12.6052 63.1991L12.8208 62.5209L12.2666 62.0936H12.9463L13.1522 61.4327L13.3535 62.0936H14.0355L13.4861 62.5209L13.6993 63.1991ZM11.0831 63.1991L10.536 62.7815L9.98903 63.1991L10.2044 62.5209L9.65031 62.0936H10.3301L10.536 61.4327L10.7373 62.0936H11.4193L10.8699 62.5209L11.0831 63.1991ZM8.46678 63.1991L7.91982 62.7815L7.37286 63.1991L7.58828 62.5209L7.03414 62.0936H7.71378L7.91982 61.4327L8.12118 62.0936H8.80301L8.2537 62.5209L8.46678 63.1991ZM6.9823 61.0005V31.021H6.24219V63.6262H6.93852V63.6354H17.2893V61.0005H6.9823Z" fill="#0A417A"/>
	<path fillRule="evenodd" clip-rule="evenodd" d="M43.7204 61.0126L17.2852 61.0051V61.7727H43.1875V62.8674H17.2852V63.6352H43.7204V63.623H43.9275V61.0126H43.7204Z" fill="#D0383F"/>
	<path fillRule="evenodd" clip-rule="evenodd" d="M9.19137 32.6934L6.60141 36.5322L3.9375 32.7702L6.60141 29.0237L9.19137 32.6934Z" fill="#D0383F"/>
	<path fillRule="evenodd" clip-rule="evenodd" d="M45.3365 62.3143H45.4548C45.514 62.3143 45.6267 62.3143 45.6267 62.1918C45.6267 62.1562 45.6125 62.1088 45.5696 62.0871C45.5408 62.0753 45.5159 62.0753 45.428 62.0753H45.3365V62.3143ZM45.453 61.9528C45.5355 61.9528 45.5927 61.9548 45.6411 61.9745C45.7289 62.0081 45.7701 62.097 45.7701 62.1799C45.7701 62.2412 45.7486 62.3498 45.6053 62.3893C45.6822 62.4249 45.7057 62.4762 45.72 62.575C45.736 62.6974 45.745 62.7606 45.7809 62.8397H45.6179C45.5945 62.7883 45.591 62.7547 45.5749 62.6461C45.5479 62.4584 45.5372 62.4407 45.3347 62.4407V62.8397H45.1915V61.9528H45.453ZM45.4602 61.7612C45.1448 61.7612 44.8813 62.0417 44.8813 62.4012C44.8813 62.7626 45.1432 63.0411 45.462 63.0411C45.7969 63.0411 46.0425 62.7448 46.0425 62.4031C46.0425 62.0476 45.7953 61.7612 45.4602 61.7612ZM45.4602 63.1043C45.1287 63.1043 44.8242 62.8179 44.8242 62.4012C44.8242 61.9963 45.118 61.698 45.4602 61.698C45.8186 61.698 46.0999 62.0042 46.0999 62.4031C46.0999 62.7784 45.831 63.1043 45.4602 63.1043Z" fill="#0A417A"/>
	<path fillRule="evenodd" clip-rule="evenodd" d="M2.94151 7.1709C2.94001 7.17738 2.95472 7.1807 2.97783 7.18213C2.95712 7.16964 2.94316 7.16411 2.94151 7.1709Z" fill="#0A417A"/>
	<path fillRule="evenodd" clip-rule="evenodd" d="M58.5715 35.7815C58.1407 35.59 54.8178 33.0152 54.8178 33.0152C54.7154 32.8875 54.5306 32.7172 54.5924 32.6959C54.6539 32.6747 54.6744 32.5896 54.7768 32.5896C54.8796 32.5896 55.2488 32.5896 55.3511 32.5683C55.4539 32.547 56.0076 32.5683 56.0691 32.5683C56.1306 32.5683 56.1921 32.547 56.233 32.6323C56.2742 32.7172 56.4178 32.9301 56.4792 33.0152C56.5407 33.1004 56.8076 33.6536 56.8691 33.7176C56.9306 33.7812 57.238 34.2709 57.3407 34.3771C57.4433 34.4835 57.7509 34.8879 57.8127 34.9091C57.8742 34.9303 58.3252 35.2496 58.4482 35.3349C58.5715 35.4199 58.8998 35.8031 58.9201 35.8669C58.9201 35.8669 58.7087 35.8429 58.5715 35.7815ZM43.2769 26.3472C43.2769 26.3472 41.5739 23.4943 41.0479 22.4032C41.6886 22.605 42.213 22.9877 42.4841 23.0132C42.7884 23.042 42.9417 23.1216 42.9695 23.2077C42.9972 23.2939 43.4714 23.8367 43.9656 24.0403C44.193 24.1341 44.2339 24.0902 44.2617 24.205C44.2891 24.3197 44.5609 24.5601 44.6716 24.5314C44.7825 24.5025 45.0171 24.4709 45.1278 24.5284C45.2385 24.5858 46.7329 26.0787 46.7329 26.0787C46.7329 26.0787 45.878 26.6055 43.2769 26.3472ZM43.5229 31.5623C43.4951 31.3327 42.6926 30.615 42.6926 30.615C42.4435 30.2131 41.6964 30.3278 41.6964 30.3278C41.8349 30.0121 41.2537 29.4379 41.1151 29.4092C40.977 29.3805 40.3681 28.7775 40.3681 28.7775C38.9292 28.3181 36.1067 23.6957 36.1067 23.6957C34.834 22.6623 34.723 21.1692 34.723 21.1692C34.723 21.1692 35.4981 20.5663 35.664 20.3365C35.8299 20.107 35.7192 20.2791 35.7192 20.2791C35.7192 20.2791 37.0474 20.7673 37.3799 20.5663C37.3799 20.5663 37.4906 20.4801 37.352 20.4228C37.2136 20.3653 37.1029 20.2504 37.0753 20.1644C37.0474 20.0783 36.9922 19.9632 37.0753 19.9921C37.1561 20.0201 39.825 21.9482 40.629 22.1811L43.0798 26.5669C45.5428 30.3565 43.5503 31.7922 43.5229 31.5623ZM39.4274 19.0446L39.4732 18.9729C39.4997 18.9911 42.1597 20.8092 42.9726 21.1467C42.9726 21.1467 43.8026 21.4913 43.8063 21.4928L44.1104 21.6362L44.1227 21.642L44.1327 21.6514C44.1327 21.6514 44.4922 21.996 44.4905 21.9945L44.6953 22.1802L44.9504 22.2332L44.975 22.2382L44.9928 22.2566L45.1311 22.4003L45.141 22.4105L45.1473 22.4234L45.6452 23.4858L45.6481 23.4918L45.65 23.4982C45.6547 23.5145 45.7679 23.904 45.6478 24.2158L45.5705 24.1838L45.4933 24.1517C45.5848 23.9145 45.5047 23.5993 45.4927 23.5544L45.0039 22.5118L44.8932 22.397L44.6413 22.3447L44.6195 22.3402L44.6026 22.3251C44.6026 22.3251 44.3812 22.1241 44.3795 22.1226L44.0298 21.7874C43.9737 21.761 43.738 21.6497 43.7408 21.6511L42.9108 21.3067C42.0822 20.9627 39.4918 19.1917 39.3817 19.1165L39.4274 19.0446ZM64.1525 36.6371C64.082 36.4453 63.9426 36.3371 63.8011 36.0305C63.8011 36.0305 63.3951 34.7741 63.3162 34.3176C63.237 33.8607 62.8592 31.9166 62.7794 31.5596C62.6524 30.993 62.6112 31.0166 62.2248 28.8929C62.1369 28.409 61.8026 27.5231 61.8026 27.5231C61.6793 26.9021 60.7085 25.4202 60.7085 25.4202C62.1267 23.9161 62.0417 24.1514 62.3626 23.7336C62.5317 23.5134 62.521 23.4124 62.521 23.4124C61.9058 23.6847 61.9145 23.5525 61.9145 23.5525C61.9221 23.3969 62.5921 22.7501 62.5921 22.7501C62.1615 22.7783 60.6322 22.8757 59.1781 24.1747C59.0056 24.3286 57.1254 22.889 50.7057 25.0364C50.041 25.2587 47.8412 25.9961 47.319 25.9307C47.205 25.9166 47.1822 25.8561 47.1822 25.8561L46.0458 24.8119L45.9581 24.5534C45.9581 24.5534 46.0821 24.5194 46.1237 24.462C46.1655 24.4045 46.1883 24.3652 46.1883 24.3652C46.1883 24.3652 46.1748 23.7336 46.1748 23.6904C46.1748 23.6474 46.041 23.2831 46.041 23.2831C46.041 23.2831 45.8021 22.9098 45.7607 22.8525C45.7192 22.7951 45.4967 22.4846 45.3723 22.3123C45.2476 22.1402 44.9358 21.9229 44.8112 21.8081C44.6867 21.693 44.3581 21.4205 44.3029 21.3775C44.2474 21.3343 42.4852 19.9365 42.4297 19.8646C42.3742 19.7929 41.2753 18.7248 41.2078 18.6376C41.0236 18.4006 40.1989 17.6307 40.1073 17.5073C39.9306 17.2683 39.6245 16.6525 39.5432 16.2974C39.4188 15.7518 39.148 14.9113 39.1202 14.8683C38.7361 14.2718 38.3077 12.0614 37.4336 10.3275C37.4336 10.3275 37.4152 10.1401 37.4083 9.96192C37.4493 9.90829 37.5029 9.85587 37.5604 9.85587C37.666 9.85587 37.8716 9.87198 38.1245 9.91072C38.3771 9.94946 38.6915 9.97453 38.8585 9.86514C38.9728 9.80132 38.9376 9.57782 38.9289 9.54592C38.9289 9.54592 38.9157 9.44093 38.9551 9.41814C38.9948 9.39535 39.1222 9.31786 39.1619 9.30418C39.2014 9.29051 39.219 9.15817 39.197 9.13082C39.1749 9.10332 39.1266 9.07157 39.1266 9.07157C39.1266 9.07157 39.219 9.01672 39.2454 9.0076C39.2719 8.99848 39.3113 8.921 39.3026 8.87997C39.2937 8.83895 39.2146 8.70661 39.2146 8.67471C39.2146 8.6428 39.2234 8.54693 39.2498 8.52869C39.2761 8.51046 39.351 8.49223 39.3993 8.48311C39.4476 8.474 39.5179 8.43297 39.5179 8.36901C39.5179 8.30534 39.4344 7.99965 39.3596 7.84011C39.2849 7.68042 39.2014 7.43413 39.2146 7.3612C39.2278 7.28812 39.307 7.09653 39.3113 6.79554C39.312 6.74768 39.3113 6.69845 39.3101 6.64922C39.7749 6.66335 40.5097 6.67672 40.6758 6.67353C40.901 6.66913 40.6464 6.54818 40.5465 6.50473C40.4463 6.46173 39.8464 6.20207 39.8464 6.20207C39.7753 4.58044 38.9291 4.07418 38.9291 4.07418C37.712 3.10542 35.9154 3.36083 35.1607 4.05701C34.4062 4.75334 34.3355 6.05514 34.3061 6.49622C34.2771 6.93745 34.2522 7.6122 34.2733 7.68559C34.2733 7.68559 34.3061 7.83251 34.5524 7.83692C34.6848 7.8392 34.8236 7.81778 34.9328 7.79529C34.9894 7.84604 35.1059 8.1335 35.1059 8.35928C35.1059 8.70418 35.1643 9.13037 35.0507 9.2779C35.0507 9.2779 34.1927 10.1822 33.847 10.6847C33.847 10.6847 32.7538 11.4599 32.8784 13.7566C32.8784 13.7566 33.2451 16.0751 33.6187 17.2306C33.6187 17.2306 33.9299 18.9102 33.8678 19.2763C33.8678 19.2763 33.8635 20.9563 33.8842 21.0353C33.8965 21.0815 33.8965 21.0906 33.8944 21.0903L33.9382 21.1471L33.9953 21.1947L34.0889 21.2214L34.2689 21.2143H34.3866C34.3866 21.2143 34.4696 21.2646 34.4764 21.2862C34.4833 21.3076 34.5669 21.4012 34.5792 21.5153C34.5906 21.6222 34.6341 21.8237 34.6477 21.8599C34.6615 21.8956 34.6632 22.0038 34.6632 22.0038C34.6632 22.0038 34.4931 22.0015 34.4058 21.9618C34.3185 21.9223 33.703 21.6734 33.2403 21.2384L33.0929 21.1932C33.0929 21.1932 33.0492 21.1986 33.0329 21.2158C33.0169 21.2328 32.9879 21.3609 32.9879 21.3609C32.9879 21.3609 32.9459 21.9902 32.9459 22.0127C32.9459 22.0354 32.8806 22.041 32.8424 22.0241C32.8043 22.0071 31.1754 20.5263 30.756 19.9837C30.3365 19.4412 29.1326 17.8755 29.1326 17.8755C29.1326 17.8755 28.1456 16.6692 27.5802 16.2816C27.1527 15.9887 25.8533 15.1342 25.4938 15.0101C25.1343 14.8856 24.6884 14.4245 22.7101 14.0266C22.7101 14.0266 21.3482 13.5009 21.1739 13.4217C20.9997 13.3427 20.1171 12.7378 20.0734 12.7152C20.0299 12.6927 19.1856 12.0936 18.8259 11.8449C18.4665 11.5962 17.5782 10.9752 17.1329 10.7543C16.8054 10.5919 15.6991 10.0136 15.1978 9.83278C14.6968 9.65182 13.3512 9.05288 13.0842 8.95108C12.8174 8.84943 11.8098 8.35518 10.9627 8.02259C10.0996 7.68362 8.98256 6.53831 8.76465 6.43089C8.54689 6.32362 7.02625 5.13395 6.83002 4.97C6.48207 4.6792 5.81869 4.05458 5.5365 3.86542C5.16103 3.16589 4.70545 3.11241 4.68934 3.10542C4.68934 3.10542 4.68656 2.96215 4.51771 2.83224C4.34886 2.70203 4.15248 2.64657 4.05979 2.61831C3.96724 2.59005 3.70555 2.48309 3.60186 2.39268C3.49833 2.30228 2.99106 1.81274 2.57165 1.26424C2.15224 0.716048 2.02791 0.747195 1.91911 0.62291C1.81016 0.498625 1.33891 0.092343 1.18632 0.0528392C1.03387 0.0133353 0.984667 -0.0223701 0.957575 0.0172857C0.930191 0.0567895 0.93517 0.245041 0.946006 0.290318C0.956989 0.335596 1.01762 0.86282 1.07195 1.14558C1.12642 1.42803 1.1746 1.67675 1.27799 1.7275C1.38152 1.7784 1.39031 1.80119 1.40393 1.81076C1.47261 1.85816 1.55008 1.90861 1.51932 1.90861C1.46485 1.90861 1.70443 1.93687 1.73166 1.93687C1.7589 1.93687 1.84618 1.98792 1.87884 1.99339C1.91149 1.99916 2.02865 2.01375 2.04505 2.03624C2.0613 2.05903 2.07932 2.16417 2.07932 2.22631C2.07932 2.2886 2.10216 2.34513 2.10216 2.34513C2.10216 2.34513 1.8248 2.20777 1.77032 2.19076C1.71585 2.17374 1.68202 2.17374 1.63296 2.19076C1.5839 2.20777 1.51669 2.24394 1.48403 2.23816C1.45137 2.23254 1.21355 2.14153 1.18632 2.10765C1.15922 2.07361 0.985399 1.96528 0.968997 1.95951C0.952742 1.95389 0.90017 1.94127 0.90017 1.94127C0.90017 1.94127 0.851698 2.05037 0.911592 2.09564C0.971633 2.14092 0.990817 2.26034 1.08337 2.34513C1.17607 2.42991 1.26818 2.68577 1.30098 2.72527C1.33364 2.76478 1.32441 3.07823 1.33525 3.12913C1.34623 3.18002 1.3991 3.30841 1.41535 3.33105C1.43175 3.35354 1.43073 3.44744 1.50688 3.52097C1.58317 3.59451 1.5738 3.73992 1.5738 3.75693C1.5738 3.7738 1.47012 3.75693 1.36131 3.68339C1.25236 3.61001 1.02904 3.3783 0.952742 3.33865C0.876593 3.29899 0.778038 3.25964 0.739963 3.25964C0.701889 3.25964 0.648438 3.29641 0.648438 3.3192C0.648438 3.34184 0.691491 3.409 0.751386 3.42601C0.811427 3.44303 0.791804 3.50077 0.911592 3.56853C1.03153 3.63645 1.30962 4.04379 1.36966 4.16245C1.42941 4.28112 1.4874 4.41148 1.50922 4.56418C1.53104 4.71672 1.50834 4.81943 1.48652 4.85894C1.46485 4.89859 1.42121 4.90984 1.39397 4.90984C1.36673 4.90984 1.41037 4.96651 1.29044 4.87596C1.17065 4.78555 1.17402 4.71247 1.14678 4.72371C1.11954 4.73496 0.967826 4.6798 1.05891 4.88325C1.07356 4.91607 1.18544 5.00875 1.21282 5.01999C1.23991 5.03124 1.41638 5.15689 1.46529 5.16828C1.51434 5.17938 1.69125 5.25367 1.77281 5.25929C1.85467 5.26492 2.20745 5.41351 2.28917 5.45302C2.37088 5.49267 2.80625 5.81265 2.9152 5.87464C3.02415 5.93709 3.59835 6.45079 3.84891 6.52433C4.09947 6.59787 4.48051 6.92362 4.49691 6.98029C4.51317 7.03682 4.51537 7.10276 4.36277 7.13694C4.21033 7.17067 4.05774 7.17629 3.91613 7.17629C3.8142 7.17629 3.69368 7.18495 3.63555 7.18146C3.71096 7.22598 3.88186 7.36774 3.88186 7.36774C3.88186 7.36774 4.19671 7.4589 4.32118 7.4589C4.44581 7.4589 4.47378 7.40451 4.63969 7.4475C4.80576 7.49065 4.79141 7.62709 4.79141 7.62709C4.79141 7.62709 4.70852 7.71324 4.87444 7.84239C5.04065 7.97154 5.22839 8.10403 5.25489 8.27952C5.30981 8.64417 5.17215 8.22117 4.89231 8.21114C4.5738 8.19975 4.12349 7.90347 4.12349 7.90347C3.58532 7.48169 3.74157 7.56024 3.40944 7.34495C3.07746 7.12965 3.14834 7.07267 2.81635 6.90053C2.48437 6.72823 2.1745 6.58176 2.01444 6.44471C1.96114 6.39883 1.75876 6.28852 1.67865 6.20526C1.59855 6.12215 1.35809 5.84896 1.20931 5.76585C1.06038 5.68274 1.1292 5.65889 1.09479 5.54023C1.06038 5.42141 1.00326 5.32645 0.865756 5.25504C0.728541 5.18378 0.831489 5.3383 0.85448 5.43326C0.877325 5.52822 0.90017 5.58763 0.98042 5.63519C1.06038 5.68274 1.07195 5.78956 1.1292 5.92022C1.18632 6.05104 1.14063 6.00349 1.28941 6.16971C1.43834 6.33577 1.71995 6.89491 1.71995 6.89491C1.71995 7.15335 1.92746 7.49779 1.92746 7.49779C1.92746 7.49779 2.25958 7.92854 2.42565 7.92854C2.42565 7.92854 2.64062 7.98324 2.71751 8.01742C2.79453 8.05146 2.95913 8.06285 2.99208 8.06285C3.02503 8.06285 3.14599 8.08564 3.20076 8.13138C3.25568 8.17696 3.38762 8.18835 3.43155 8.25672C3.47534 8.3251 3.53026 8.41641 3.62925 8.47339C3.7281 8.53021 3.94776 8.72393 4.03562 8.74672C4.12349 8.76952 4.49691 8.97463 4.54099 8.98618C4.58478 8.99742 4.94737 9.11137 5.0572 9.12277C5.16703 9.13417 5.28784 9.24827 5.43062 9.27106C5.5734 9.2937 5.73815 9.32804 5.79307 9.41905C5.84798 9.51036 5.82601 9.59013 5.82601 9.59013L5.7462 9.60806L5.45581 9.56491L4.95762 9.30646H4.833C4.7627 9.31938 4.62871 9.21393 4.54099 9.19114C4.45313 9.1685 4.33217 9.15696 4.25529 9.1685C4.1784 9.17975 4.14545 9.17975 4.12349 9.22548C4.10152 9.27106 4.12349 9.27106 4.22234 9.2823C4.32118 9.2937 4.42003 9.3051 4.38708 9.40765C4.35413 9.51036 4.51903 9.25951 4.83739 9.64711C5.1559 10.0345 4.63969 9.87502 4.63969 9.87502L4.38708 9.71533C4.05759 9.4306 3.49745 9.21393 3.49745 9.21393C3.36551 9.13417 3.14599 9.11137 3.11304 9.11137C3.07995 9.11137 2.93717 9.15696 2.93717 9.19114C2.93717 9.22548 3.01405 9.25951 3.06896 9.25951C3.12388 9.25951 3.31074 9.35083 3.38762 9.37347C3.4645 9.39641 3.58532 9.47618 3.65107 9.51036C3.66557 9.51796 3.6808 9.5175 3.69383 9.51462C3.67069 9.52875 3.63276 9.55519 3.57419 9.60153C3.34354 9.78385 2.8493 9.72688 2.8493 9.72688C1.27857 9.60153 1.80298 9.73721 1.80298 9.73721L2.88225 9.9525C2.88225 9.9525 3.80996 10.1795 3.91994 10.2541C4.16742 10.422 4.9913 10.5815 4.9913 10.5815L5.78765 10.6847L6.36433 10.8552L7.65565 11.1584L8.36121 11.2016L9.19123 11.4599C9.19123 11.4599 9.70949 11.5722 9.39889 11.6752H8.85925L7.9046 11.503L7.15746 11.3307H6.90851L6.74244 11.3739H5.95371L5.60635 11.2652L5.04065 11.2016L4.23332 11.14L3.23386 11.0943L2.42565 11.1584C2.42565 11.1584 1.7611 11.172 3.91994 11.5892L5.14506 11.9835L5.54045 12.1658H6.14452L7.51756 12.1998L8.09981 12.2228L9.76323 12.3551L11.4236 12.671L11.3403 12.7811C11.3403 12.7811 9.50491 12.7466 9.39889 12.7087L8.90069 12.5797L8.44424 12.4935L7.40656 12.6227L6.9025 12.6102L6.03674 12.5797H5.20657L4.39821 12.5646L3.87835 12.5365C3.87835 12.5365 4.12569 12.8734 4.833 12.9241H6.11978C6.11978 12.9241 7.34842 12.8521 6.20281 13.3978L7.28193 13.1396L8.33045 13.1002L9.06676 13.2255L9.85549 13.2687H10.4366L11.1468 13.3026L11.9309 13.2255H12.3875L12.4001 13.2145C12.4001 13.2145 13.1346 13.2342 12.5951 13.4408L11.7059 13.4905L11.1998 13.6856L10.8763 14.0644L11.5233 13.8479L12.3875 13.8716L12.7196 13.9576L13.3836 14.0007L14.2137 13.9576L13.8817 14.1869L13.5496 14.216L12.9889 14.1395L12.5196 14.1869L12.4291 14.3452L12.7026 14.46L13.2064 14.5195L14.4212 14.4745L15.3344 14.3022L15.8326 14.0437L16.2477 13.7854C16.2477 13.7854 17.0528 13.5574 18.3464 13.7001C18.3464 13.7001 19.7861 14.0585 20.44 14.9482C20.5406 15.0853 20.51 15.0897 20.2739 15.2067C18.9353 15.8705 15.9996 17.2513 15.625 20.2022C15.625 20.2022 14.2913 17.3969 13.3781 16.9663C13.3781 16.9663 12.9315 16.9306 12.6364 17.2738C12.402 17.5465 11.3747 18.5458 11.3747 18.5458L11.1686 18.534C11.1686 18.534 8.9357 20.6699 8.5321 20.9075C8.11929 21.1505 7.74059 21.3507 7.74059 21.3507L7.52137 21.6462L7.42003 22.1367C7.38605 22.7665 7.12861 22.842 7.12861 22.842C6.77422 23.0334 6.68855 22.6569 6.68855 22.6569L6.32948 21.8337C6.14701 21.2989 4.74996 21.1497 4.74996 21.1497C4.50101 21.1066 3.87835 21.1575 3.62925 21.1497C2.65688 21.1192 2.79292 21.6581 2.79292 21.6581C2.79292 21.8304 3.16664 22.6506 3.26871 22.8066C3.35262 22.9353 3.69105 23.4264 3.69105 23.4264L3.45806 23.4566L2.63316 23.6044C2.63316 23.6044 2.09352 23.7767 2.01049 23.9059C1.92746 24.035 2.04022 24.2122 2.04022 24.2122C2.04022 24.2122 2.6024 24.6993 2.71619 24.7672C2.84154 24.842 3.4913 25.3335 3.33886 25.1978C3.04817 24.9395 4.0182 25.7863 4.14267 25.8294C4.26715 25.8724 4.54246 25.93 4.95762 25.8868C5.37263 25.8438 5.82924 25.8007 5.9953 25.8007C6.16122 25.8007 6.28584 25.7577 6.49335 25.8007C6.70085 25.8438 7.13535 25.9754 7.25982 25.9754C7.38444 25.9754 7.86316 26.0593 8.07067 26.0161C8.27817 25.973 8.60166 25.7671 8.72614 25.638C8.85076 25.5087 10.8674 23.638 11.5085 22.6606C11.5085 22.6606 11.8872 22.2374 12.2075 22.2122C12.6291 22.1792 12.8242 22.3283 12.8242 22.3283C12.8242 22.3283 13.2724 22.7031 13.4311 23.3106C13.635 24.0914 15.5935 27.9818 16.4027 28.9023C16.4027 28.9023 16.7599 29.7746 17.908 29.7628C21.5791 29.7249 21.7175 29.5528 23.2625 29.2892C24.5633 29.067 24.7982 28.9876 25.1718 28.8154C25.5454 28.643 25.5309 28.8267 25.5309 28.8267C25.1377 29.1088 24.2392 29.2751 24.2392 29.2751C24.2392 29.2751 24.8187 29.7783 24.9432 29.8644C25.0678 29.9506 26.968 31.9803 27.3516 32.5344C27.7673 33.1352 30.7853 37.2781 31.2456 37.9095C32.8588 40.1233 35.4057 41.5326 38.2052 42.7687C38.2954 42.8085 41.2731 44.2383 42.7238 44.0708C42.7673 44.0656 42.8114 44.0053 42.8114 44.0053C42.821 43.8489 42.6995 43.5367 42.6995 43.5367L42.2779 42.5351C42.2779 42.5351 42.2197 42.3299 42.3983 42.4335L42.7395 43.1485L43.117 44.1716C43.117 44.1716 43.7025 45.9607 44.2422 47.3819C44.7817 48.803 45.2814 49.5641 45.6766 51.4679C45.9672 52.8674 46.1679 53.285 46.1679 53.285L46.7558 53.8364C46.7558 53.8364 48.0425 57.7557 48.1259 58.1431C48.2085 58.5307 48.2085 58.8753 48.2085 58.8753L48.4576 59.2627L49.1217 59.5642C49.1217 59.5642 49.4952 59.6503 49.4952 59.8225C49.4952 59.9948 49.6614 60.5118 49.5784 60.6838C49.4952 60.8563 49.4124 61.4591 49.3293 61.8896C49.2464 62.3205 49.1444 62.1555 49.2464 62.4929C49.3803 62.9354 49.5367 63.0955 49.5367 63.0955C49.5367 63.0955 49.8277 63.268 50.1593 63.4401C50.4915 63.6126 51.2804 63.8708 51.2804 63.8708L52.1104 64L52.8159 63.9138L53.3141 63.6554L53.3553 63.2248L53.1065 62.5788L52.0688 60.641L51.4461 59.7365L51.1141 59.4352L50.9482 58.7893L51.1379 58.3201L49.3839 53.1032L49.1217 52.8461L48.9557 51.9846L48.4576 50.6497C48.4576 50.6497 47.6873 48.0325 47.6275 47.8505C47.5644 47.6582 47.1345 42.8516 47.337 42.5964C47.4547 42.4479 47.4811 42.444 47.6887 42.2287C47.8961 42.0132 49.2587 40.4151 49.7741 37.8086C49.9303 37.0177 50.2068 36.6639 50.2181 36.644C50.5713 36.017 53.0845 33.1952 53.6048 32.9927C53.9365 32.8635 53.9365 32.8635 53.9365 32.8635C53.9955 32.912 57.9997 36.3534 59.5051 36.8543C59.5051 36.8543 59.7515 38.1713 60.714 38.0707C60.714 38.0707 61.0278 38.6524 61.7935 38.6827C62.2512 38.701 62.1281 38.5823 62.7265 38.2443C62.7265 38.2443 62.8849 38.1622 62.9467 38.1438C63.0081 38.1256 63.2456 37.9521 63.3162 37.8974C63.3865 37.8424 63.4836 37.7877 63.5365 37.7603C63.5893 37.7331 63.7295 37.7239 63.8267 37.6142C63.9237 37.5048 64.0887 37.3856 64.1382 37.1985C64.1382 37.1985 64.2225 36.8289 64.1525 36.6371Z" fill="#0A417A"/>
</svg>